<svg xmlns="http://www.w3.org/2000/svg" width="512" height="448" viewBox="0 0 512 448">
  <path id="arrow-right-from-bracket-light" d="M507.3,244.7l-144-144a15.995,15.995,0,0,0-22.62,22.62L457.4,240H176a16,16,0,0,0,0,32H457.4L340.7,388.7a15.995,15.995,0,0,0,22.62,22.62l144-144a15.982,15.982,0,0,0-.02-22.62ZM176,448H80a48.032,48.032,0,0,1-48-48V112A48.051,48.051,0,0,1,80,64h96a16,16,0,0,0,0-32H80A80.081,80.081,0,0,0,0,112V400a80.093,80.093,0,0,0,80,80h96a16,16,0,0,0,0-32Z" transform="translate(0 -32)" fill="#fff"/>
</svg>
