<svg xmlns="http://www.w3.org/2000/svg" width="320.1" height="448" viewBox="0 0 320.1 448">
  <path id="euro-sign-light" d="M48,224a16,16,0,0,1,0-32H73.28C100.8,99.47,186.5,32,288,32h48.1c9.7,0,16,7.16,16,16s-6.3,16-16,16H288A192.114,192.114,0,0,0,106.9,192H304a16,16,0,0,1,0,32H98.65a194.532,194.532,0,0,0,0,64H304a16,16,0,0,1,0,32H106.9A192.114,192.114,0,0,0,288,448h48.1c9.7,0,16,7.2,16,16s-6.3,16-16,16H288c-101.5,0-187.2-67.5-214.72-160H48a16,16,0,0,1,0-32H66.27a226.686,226.686,0,0,1,0-64Z" transform="translate(-32 -32)" fill="#fff"/>
</svg>
