<svg xmlns="http://www.w3.org/2000/svg" width="24.411" height="16.274" viewBox="0 0 24.411 16.274">
  <path id="Icon_awesome-eye" data-name="Icon awesome-eye" d="M24.264,12.018A13.593,13.593,0,0,0,12.206,4.5,13.6,13.6,0,0,0,.147,12.019a1.371,1.371,0,0,0,0,1.237,13.593,13.593,0,0,0,12.058,7.518,13.6,13.6,0,0,0,12.058-7.519A1.371,1.371,0,0,0,24.264,12.018ZM12.206,18.74a6.1,6.1,0,1,1,6.1-6.1A6.1,6.1,0,0,1,12.206,18.74Zm0-10.171a4.039,4.039,0,0,0-1.073.161A2.028,2.028,0,0,1,8.3,11.564a4.059,4.059,0,1,0,3.908-3Z" transform="translate(0 -4.5)" fill="#eab308"/>
</svg>
