<svg xmlns="http://www.w3.org/2000/svg" width="1459" height="1270" viewBox="0 0 1459 1270">
  <g id="Groupe_473" data-name="Groupe 473" transform="translate(-2871 3568)">
    <rect id="Rectangle_470" data-name="Rectangle 470" width="1459" height="1270" transform="translate(2871 -3568)" fill="#fff"/>
    <g id="Groupe_472" data-name="Groupe 472" transform="translate(3091.417 -3796.51)">
      <g id="Groupe_415" data-name="Groupe 415" transform="translate(-7.17 427.38)">
        <rect id="Rectangle_176" data-name="Rectangle 176" width="18" height="16" transform="translate(-0.247 0.13)" fill="#eee"/>
        <rect id="Rectangle_177" data-name="Rectangle 177" width="15" height="16" transform="translate(57.753 0.13)" fill="#eee"/>
        <rect id="Rectangle_178" data-name="Rectangle 178" width="13" height="16" transform="translate(117.753 0.13)" fill="#eee"/>
        <rect id="Rectangle_179" data-name="Rectangle 179" width="16" height="16" transform="translate(179.753 0.13)" fill="#eee"/>
        <rect id="Rectangle_180" data-name="Rectangle 180" width="17" height="16" transform="translate(237.753 0.13)" fill="#eee"/>
        <rect id="Rectangle_181" data-name="Rectangle 181" width="14" height="16" transform="translate(296.753 0.13)" fill="#eee"/>
        <rect id="Rectangle_188" data-name="Rectangle 188" width="18" height="15" transform="translate(-0.247 55.13)" fill="#eee"/>
        <rect id="Rectangle_189" data-name="Rectangle 189" width="15" height="15" transform="translate(57.753 55.13)" fill="#eee"/>
        <rect id="Rectangle_190" data-name="Rectangle 190" width="13" height="15" transform="translate(117.753 55.13)" fill="#eee"/>
        <rect id="Rectangle_191" data-name="Rectangle 191" width="16" height="15" transform="translate(179.753 55.13)" fill="#eee"/>
        <rect id="Rectangle_192" data-name="Rectangle 192" width="17" height="15" transform="translate(237.753 55.13)" fill="#eee"/>
        <rect id="Rectangle_193" data-name="Rectangle 193" width="14" height="15" transform="translate(296.753 55.13)" fill="#eee"/>
        <rect id="Rectangle_200" data-name="Rectangle 200" width="18" height="17" transform="translate(-0.247 109.13)" fill="#eee"/>
        <rect id="Rectangle_201" data-name="Rectangle 201" width="15" height="17" transform="translate(57.753 109.13)" fill="#eee"/>
        <rect id="Rectangle_202" data-name="Rectangle 202" width="13" height="17" transform="translate(117.753 109.13)" fill="#eee"/>
        <rect id="Rectangle_203" data-name="Rectangle 203" width="16" height="17" transform="translate(179.753 109.13)" fill="#eee"/>
        <rect id="Rectangle_204" data-name="Rectangle 204" width="17" height="17" transform="translate(237.753 109.13)" fill="#eee"/>
        <rect id="Rectangle_205" data-name="Rectangle 205" width="14" height="17" transform="translate(296.753 109.13)" fill="#eee"/>
        <rect id="Rectangle_212" data-name="Rectangle 212" width="18" height="15" transform="translate(-0.247 165.13)" fill="#eee"/>
        <rect id="Rectangle_213" data-name="Rectangle 213" width="15" height="15" transform="translate(57.753 165.13)" fill="#eee"/>
        <rect id="Rectangle_214" data-name="Rectangle 214" width="13" height="15" transform="translate(117.753 165.13)" fill="#eee"/>
        <rect id="Rectangle_215" data-name="Rectangle 215" width="16" height="15" transform="translate(179.753 165.13)" fill="#eee"/>
        <rect id="Rectangle_216" data-name="Rectangle 216" width="17" height="15" transform="translate(237.753 165.13)" fill="#eee"/>
        <rect id="Rectangle_217" data-name="Rectangle 217" width="14" height="15" transform="translate(296.753 165.13)" fill="#eee"/>
        <rect id="Rectangle_224" data-name="Rectangle 224" width="18" height="16" transform="translate(-0.247 219.13)" fill="#eee"/>
        <rect id="Rectangle_225" data-name="Rectangle 225" width="15" height="16" transform="translate(57.753 219.13)" fill="#eee"/>
        <rect id="Rectangle_226" data-name="Rectangle 226" width="13" height="16" transform="translate(117.753 219.13)" fill="#eee"/>
        <rect id="Rectangle_227" data-name="Rectangle 227" width="16" height="16" transform="translate(179.753 219.13)" fill="#eee"/>
        <rect id="Rectangle_228" data-name="Rectangle 228" width="17" height="16" transform="translate(237.753 219.13)" fill="#eee"/>
        <rect id="Rectangle_229" data-name="Rectangle 229" width="14" height="16" transform="translate(296.753 219.13)" fill="#eee"/>
        <rect id="Rectangle_236" data-name="Rectangle 236" width="18" height="15" transform="translate(-0.247 274.13)" fill="#eee"/>
        <rect id="Rectangle_237" data-name="Rectangle 237" width="15" height="15" transform="translate(57.753 274.13)" fill="#eee"/>
        <rect id="Rectangle_238" data-name="Rectangle 238" width="13" height="15" transform="translate(117.753 274.13)" fill="#eee"/>
        <rect id="Rectangle_239" data-name="Rectangle 239" width="16" height="15" transform="translate(179.753 274.13)" fill="#eee"/>
        <rect id="Rectangle_240" data-name="Rectangle 240" width="17" height="15" transform="translate(237.753 274.13)" fill="#eee"/>
        <rect id="Rectangle_241" data-name="Rectangle 241" width="14" height="15" transform="translate(296.753 274.13)" fill="#eee"/>
        <rect id="Rectangle_248" data-name="Rectangle 248" width="18" height="16" transform="translate(-0.247 329.13)" fill="#eee"/>
        <rect id="Rectangle_249" data-name="Rectangle 249" width="15" height="16" transform="translate(57.753 329.13)" fill="#eee"/>
        <rect id="Rectangle_250" data-name="Rectangle 250" width="13" height="16" transform="translate(117.753 329.13)" fill="#eee"/>
        <rect id="Rectangle_251" data-name="Rectangle 251" width="16" height="16" transform="translate(179.753 329.13)" fill="#eee"/>
        <rect id="Rectangle_252" data-name="Rectangle 252" width="17" height="16" transform="translate(237.753 329.13)" fill="#eee"/>
        <rect id="Rectangle_253" data-name="Rectangle 253" width="14" height="16" transform="translate(296.753 329.13)" fill="#eee"/>
        <rect id="Rectangle_260" data-name="Rectangle 260" width="18" height="16" transform="translate(-0.247 329.13)" fill="#eee"/>
        <rect id="Rectangle_261" data-name="Rectangle 261" width="15" height="16" transform="translate(57.753 329.13)" fill="#eee"/>
        <rect id="Rectangle_262" data-name="Rectangle 262" width="13" height="16" transform="translate(117.753 329.13)" fill="#eee"/>
        <rect id="Rectangle_263" data-name="Rectangle 263" width="16" height="16" transform="translate(179.753 329.13)" fill="#eee"/>
        <rect id="Rectangle_264" data-name="Rectangle 264" width="17" height="16" transform="translate(237.753 329.13)" fill="#eee"/>
        <rect id="Rectangle_265" data-name="Rectangle 265" width="14" height="16" transform="translate(296.753 329.13)" fill="#eee"/>
        <rect id="Rectangle_272" data-name="Rectangle 272" width="18" height="16" transform="translate(-0.247 384.13)" fill="#eee"/>
        <rect id="Rectangle_273" data-name="Rectangle 273" width="15" height="16" transform="translate(57.753 384.13)" fill="#eee"/>
        <rect id="Rectangle_274" data-name="Rectangle 274" width="13" height="16" transform="translate(117.753 384.13)" fill="#eee"/>
        <rect id="Rectangle_275" data-name="Rectangle 275" width="16" height="16" transform="translate(179.753 384.13)" fill="#eee"/>
        <rect id="Rectangle_276" data-name="Rectangle 276" width="17" height="16" transform="translate(237.753 384.13)" fill="#eee"/>
        <rect id="Rectangle_277" data-name="Rectangle 277" width="14" height="16" transform="translate(296.753 384.13)" fill="#eee"/>
        <rect id="Rectangle_284" data-name="Rectangle 284" width="18" height="15" transform="translate(-0.247 439.13)" fill="#eee"/>
        <rect id="Rectangle_285" data-name="Rectangle 285" width="15" height="15" transform="translate(57.753 439.13)" fill="#eee"/>
        <rect id="Rectangle_286" data-name="Rectangle 286" width="13" height="15" transform="translate(117.753 439.13)" fill="#eee"/>
        <rect id="Rectangle_287" data-name="Rectangle 287" width="16" height="15" transform="translate(179.753 439.13)" fill="#eee"/>
        <rect id="Rectangle_288" data-name="Rectangle 288" width="17" height="15" transform="translate(237.753 439.13)" fill="#eee"/>
        <rect id="Rectangle_289" data-name="Rectangle 289" width="14" height="15" transform="translate(296.753 439.13)" fill="#eee"/>
        <rect id="Rectangle_296" data-name="Rectangle 296" width="18" height="16" transform="translate(-0.247 494.13)" fill="#eee"/>
        <rect id="Rectangle_297" data-name="Rectangle 297" width="15" height="16" transform="translate(57.753 494.13)" fill="#eee"/>
        <rect id="Rectangle_298" data-name="Rectangle 298" width="13" height="16" transform="translate(117.753 494.13)" fill="#eee"/>
        <rect id="Rectangle_299" data-name="Rectangle 299" width="16" height="16" transform="translate(179.753 494.13)" fill="#eee"/>
        <rect id="Rectangle_300" data-name="Rectangle 300" width="17" height="16" transform="translate(237.753 494.13)" fill="#eee"/>
        <rect id="Rectangle_301" data-name="Rectangle 301" width="14" height="16" transform="translate(296.753 494.13)" fill="#eee"/>
        <rect id="Rectangle_308" data-name="Rectangle 308" width="18" height="15" transform="translate(-0.247 549.13)" fill="#eee"/>
        <rect id="Rectangle_309" data-name="Rectangle 309" width="15" height="15" transform="translate(57.753 549.13)" fill="#eee"/>
        <rect id="Rectangle_310" data-name="Rectangle 310" width="13" height="15" transform="translate(117.753 549.13)" fill="#eee"/>
        <rect id="Rectangle_311" data-name="Rectangle 311" width="16" height="15" transform="translate(179.753 549.13)" fill="#eee"/>
        <rect id="Rectangle_312" data-name="Rectangle 312" width="17" height="15" transform="translate(237.753 549.13)" fill="#eee"/>
        <rect id="Rectangle_313" data-name="Rectangle 313" width="14" height="15" transform="translate(296.753 549.13)" fill="#eee"/>
        <rect id="Rectangle_320" data-name="Rectangle 320" width="18" height="16" transform="translate(-0.247 603.13)" fill="#eee"/>
        <rect id="Rectangle_321" data-name="Rectangle 321" width="15" height="16" transform="translate(57.753 603.13)" fill="#eee"/>
        <rect id="Rectangle_322" data-name="Rectangle 322" width="13" height="16" transform="translate(117.753 603.13)" fill="#eee"/>
        <rect id="Rectangle_323" data-name="Rectangle 323" width="16" height="16" transform="translate(179.753 603.13)" fill="#eee"/>
        <rect id="Rectangle_324" data-name="Rectangle 324" width="17" height="16" transform="translate(237.753 603.13)" fill="#eee"/>
        <rect id="Rectangle_325" data-name="Rectangle 325" width="14" height="16" transform="translate(296.753 603.13)" fill="#eee"/>
        <rect id="Rectangle_332" data-name="Rectangle 332" width="18" height="15" transform="translate(-0.247 659.13)" fill="#eee"/>
        <rect id="Rectangle_333" data-name="Rectangle 333" width="15" height="15" transform="translate(57.753 659.13)" fill="#eee"/>
        <rect id="Rectangle_334" data-name="Rectangle 334" width="13" height="15" transform="translate(117.753 659.13)" fill="#eee"/>
        <rect id="Rectangle_335" data-name="Rectangle 335" width="16" height="15" transform="translate(179.753 659.13)" fill="#eee"/>
        <rect id="Rectangle_336" data-name="Rectangle 336" width="17" height="15" transform="translate(237.753 659.13)" fill="#eee"/>
        <rect id="Rectangle_337" data-name="Rectangle 337" width="14" height="15" transform="translate(296.753 659.13)" fill="#eee"/>
        <rect id="Rectangle_344" data-name="Rectangle 344" width="18" height="16" transform="translate(-0.247 713.13)" fill="#eee"/>
        <rect id="Rectangle_345" data-name="Rectangle 345" width="15" height="16" transform="translate(57.753 713.13)" fill="#eee"/>
        <rect id="Rectangle_346" data-name="Rectangle 346" width="13" height="16" transform="translate(117.753 713.13)" fill="#eee"/>
        <rect id="Rectangle_347" data-name="Rectangle 347" width="16" height="16" transform="translate(179.753 713.13)" fill="#eee"/>
        <rect id="Rectangle_348" data-name="Rectangle 348" width="17" height="16" transform="translate(237.753 713.13)" fill="#eee"/>
        <rect id="Rectangle_349" data-name="Rectangle 349" width="14" height="16" transform="translate(296.753 713.13)" fill="#eee"/>
        <rect id="Rectangle_356" data-name="Rectangle 356" width="18" height="16" transform="translate(-0.247 713.13)" fill="#eee"/>
        <rect id="Rectangle_357" data-name="Rectangle 357" width="15" height="16" transform="translate(57.753 713.13)" fill="#eee"/>
        <rect id="Rectangle_358" data-name="Rectangle 358" width="13" height="16" transform="translate(117.753 713.13)" fill="#eee"/>
        <rect id="Rectangle_359" data-name="Rectangle 359" width="16" height="16" transform="translate(179.753 713.13)" fill="#eee"/>
        <rect id="Rectangle_360" data-name="Rectangle 360" width="17" height="16" transform="translate(237.753 713.13)" fill="#eee"/>
        <rect id="Rectangle_361" data-name="Rectangle 361" width="14" height="16" transform="translate(296.753 713.13)" fill="#eee"/>
      </g>
      <g id="undraw_secure_login_pdn4_1_" data-name="undraw_secure_login_pdn4 (1)" transform="translate(61.272 629.61)">
        <ellipse id="Ellipse_62" data-name="Ellipse 62" cx="192.083" cy="14.589" rx="192.083" ry="14.589" transform="translate(0 641.573)" fill="#e6e6e6"/>
        <path id="Tracé_196" data-name="Tracé 196" d="M324.272,314.7c33.428-14.218,75.064-5.21,115.725,1.043.378-7.572,4.965-16.786.16-22.069-5.837-6.417-5.3-13.161-1.787-19.942,8.982-17.342-3.886-35.8-16.879-51.139a28.775,28.775,0,0,0-24.017-10.08l-24.068,1.719a28.824,28.824,0,0,0-25.594,20.6h0c-5.747,7.816-8.823,15.611-6.886,23.364-8.608,5.883-10.054,12.984-6.186,20.989,3.28,5.04,3.245,9.947-.149,14.717a67.95,67.95,0,0,0-10.1,20.067Z" transform="translate(-177.447 -165.872)" fill="#2f2e41"/>
        <path id="Tracé_197" data-name="Tracé 197" d="M1102.654,658.97H421.345A22.845,22.845,0,0,1,398.5,636.126h0q370.462-43.055,727,0h0a22.845,22.845,0,0,1-22.844,22.844Z" transform="translate(-161.435 -79.118)" fill="#2f2e41"/>
        <path id="Tracé_198" data-name="Tracé 198" d="M1125.5,719.49l-727-1.344,84.257-141.772.4-.672V263.255a28.876,28.876,0,0,1,28.881-28.878h495.889a28.877,28.877,0,0,1,28.879,28.881V577.852Z" transform="translate(-161.435 -161.139)" fill="#3f3d56"/>
        <path id="Tracé_199" data-name="Tracé 199" d="M493.019,250.957a9.417,9.417,0,0,0-9.407,9.407V545.251a9.418,9.418,0,0,0,9.407,9.407h501.24a9.418,9.418,0,0,0,9.407-9.407V260.363a9.418,9.418,0,0,0-9.407-9.407Z" transform="translate(-143.075 -157.562)" fill="#fff"/>
        <path id="Tracé_200" data-name="Tracé 200" d="M498.4,531.718a4.043,4.043,0,0,0-3.663,2.346L468.775,590.5a4.031,4.031,0,0,0,3.662,5.716h545.969a4.031,4.031,0,0,0,3.605-5.834l-28.22-56.44a4.011,4.011,0,0,0-3.6-2.228Z" transform="translate(-146.355 -96.997)" fill="#2f2e41"/>
        <circle id="Ellipse_63" data-name="Ellipse 63" cx="6.047" cy="6.047" r="6.047" transform="translate(592.502 76.597)" fill="#fff"/>
        <path id="Tracé_201" data-name="Tracé 201" d="M653.571,593.619a4.037,4.037,0,0,0-3.892,2.983l-6.512,24.188a4.031,4.031,0,0,0,3.892,5.08h123.85a4.031,4.031,0,0,0,3.808-5.35l-8.373-24.188a4.033,4.033,0,0,0-3.81-2.712Z" transform="translate(-108.687 -83.644)" fill="#2f2e41"/>
        <path id="Tracé_202" data-name="Tracé 202" d="M818.357,337.135v5.375H264.306l.417-.671v-4.7Z" transform="translate(57.015 72.726)" fill="#2f2e41"/>
        <circle id="Ellipse_64" data-name="Ellipse 64" cx="94.066" cy="94.066" r="94.066" transform="translate(765.853 0)" fill="#eab308"/>
        <path id="Tracé_203" data-name="Tracé 203" d="M957.674,295.476H879.733a5.381,5.381,0,0,1-5.375-5.375V243.068a5.381,5.381,0,0,1,5.375-5.375h77.941a5.381,5.381,0,0,1,5.375,5.375V290.1A5.381,5.381,0,0,1,957.674,295.476Zm-77.941-52.409V290.1h77.945l0-47.033Z" transform="translate(-58.784 -160.424)" fill="#fff"/>
        <path id="Tracé_204" data-name="Tracé 204" d="M939.315,250.7H890.938V229.2c0-15.573,10.173-26.876,24.189-26.876s24.188,11.3,24.188,26.876Zm-43-5.375H933.94V229.2c0-12.659-7.736-21.5-18.813-21.5s-18.813,8.842-18.813,21.5Z" transform="translate(-55.208 -168.054)" fill="#fff"/>
        <circle id="Ellipse_65" data-name="Ellipse 65" cx="5.375" cy="5.375" r="5.375" transform="translate(854.544 99.442)" fill="#fff"/>
        <path id="Tracé_205" data-name="Tracé 205" d="M926.829,440.88H539.453a7.182,7.182,0,0,1-7.174-7.174V337.615a7.182,7.182,0,0,1,7.174-7.174H926.829A7.182,7.182,0,0,1,934,337.615v96.091A7.182,7.182,0,0,1,926.829,440.88ZM539.453,333.311a4.309,4.309,0,0,0-4.3,4.3v96.091a4.309,4.309,0,0,0,4.3,4.3H926.829a4.309,4.309,0,0,0,4.3-4.3V337.615a4.309,4.309,0,0,0-4.3-4.3Z" transform="translate(-132.577 -140.416)" fill="#e6e6e6"/>
        <circle id="Ellipse_66" data-name="Ellipse 66" cx="29.221" cy="29.221" r="29.221" transform="translate(437.845 212.335)" fill="#e6e6e6"/>
        <path id="Tracé_206" data-name="Tracé 206" d="M644.067,356.805a4.87,4.87,0,0,0,0,9.741h229.6a4.87,4.87,0,0,0,0-9.741Z" transform="translate(-109.513 -134.729)" fill="#e6e6e6"/>
        <path id="Tracé_207" data-name="Tracé 207" d="M644.067,380.842a4.87,4.87,0,0,0,0,9.74h98.8a4.87,4.87,0,0,0,0-9.74Z" transform="translate(-109.513 -129.544)" fill="#e6e6e6"/>
        <path id="Tracé_208" data-name="Tracé 208" d="M479.889,389.87,408.28,427.941l-.906-31.726c23.373-3.9,45.61-10.7,66.171-21.755l7.489-18.5a12.543,12.543,0,0,1,21.319-3.256h0a12.543,12.543,0,0,1-1.1,17.1Z" transform="translate(-159.521 -136.602)" fill="#ffb8b8"/>
        <path id="Tracé_209" data-name="Tracé 209" d="M323.186,571.786h0a14.07,14.07,0,0,1,1.786-11.383L340.7,536.262a27.49,27.49,0,0,1,35.663-9.409h0c-6.611,11.253-5.69,21.125,2.283,29.7a143.005,143.005,0,0,0-33.962,23.153,14.071,14.071,0,0,1-21.5-7.925Z" transform="translate(-177.789 -98.711)" fill="#2f2e41"/>
        <path id="Tracé_210" data-name="Tracé 210" d="M493.123,556.068h0a26.993,26.993,0,0,1-22.942,13.1l-104.5.792-4.532-26.287,46.229-13.6L368.4,500.168,411,450.313l77.38,72.122A26.993,26.993,0,0,1,493.123,556.068Z" transform="translate(-169.493 -114.558)" fill="#2f2e41"/>
        <path id="Tracé_211" data-name="Tracé 211" d="M359.726,748.711H335.251c-21.974-150.625-44.342-301.67,21.755-358.047l77.955,12.69-9.971,66.171L381.48,519.38Z" transform="translate(-179.857 -127.425)" fill="#2f2e41"/>
        <path id="Tracé_212" data-name="Tracé 212" d="M378.1,720.93h0a14.072,14.072,0,0,1-11.383-1.786l-26.574-3.572a27.49,27.49,0,0,1-9.411-35.662h0c11.254,6.61,21.126,5.688,29.7-2.285,6.062,12.239,16.049,11.492,25.587,21.8a14.071,14.071,0,0,1-7.923,21.5Z" transform="translate(-176.717 -65.523)" fill="#2f2e41"/>
        <path id="Tracé_213" data-name="Tracé 213" d="M407.214,319l-45.322-10.877c7.527-15.408,8.147-32.552,4.532-50.761l30.819-.906C398.208,279.1,401.129,300.252,407.214,319Z" transform="translate(-169.332 -156.376)" fill="#ffb8b8"/>
        <path id="Tracé_214" data-name="Tracé 214" d="M424.476,452.521c-32.993,22.482-56.3.769-74.095-32.731,2.472-20.5-1.531-45.031-8.944-71.686a48.8,48.8,0,0,1,29.792-58.842h0l38.977,16.316c33.1,26.977,39.611,56.2,27.193,87.019Z" transform="translate(-174.137 -149.299)" fill="#eab308"/>
        <path id="Tracé_215" data-name="Tracé 215" d="M345.753,333.137,309.5,352.172l64.358,38.071,8.955,22.089a11.716,11.716,0,0,1-7.038,15.477h0a11.716,11.716,0,0,1-15.515-10.388l-.906-15.395-81.8-26.993a19.127,19.127,0,0,1-12-11.685h0a19.127,19.127,0,0,1,7.176-22.251L338.5,295.972Z" transform="translate(-190.359 -147.852)" fill="#ffb8b8"/>
        <path id="Tracé_216" data-name="Tracé 216" d="M369.831,338.46c-15.122-6.627-28.872.572-46.229,6.345l-2.719-48.042c17.234-9.186,33.666-11.662,48.948-4.532Z" transform="translate(-178.178 -149.55)" fill="#eab308"/>
        <circle id="Ellipse_67" data-name="Ellipse 67" cx="28.937" cy="28.937" r="28.937" transform="translate(180.805 66.002)" fill="#ffb8b8"/>
        <path id="Tracé_217" data-name="Tracé 217" d="M415.933,253.831c-28.65,2.806-50.481-1.88-64.433-15.221V227.866h62Z" transform="translate(-171.574 -162.543)" fill="#2f2e41"/>
      </g>
    </g>
  </g>
</svg>
