<svg xmlns="http://www.w3.org/2000/svg" width="145" height="169.413" viewBox="0 0 145 169.413">
  <g id="Groupe_473" data-name="Groupe 473" transform="translate(-3334 -1152.834)">
    <g id="Groupe_472" data-name="Groupe 472" transform="translate(-58.815 -74.787)">
      <g id="Groupe_471" data-name="Groupe 471" transform="translate(3390.564 1188.411)">
        <g id="Groupe_469" data-name="Groupe 469" transform="translate(0 0)">
          <g id="Groupe_419" data-name="Groupe 419" transform="translate(12.251 39.21)">
            <path id="Tracé_221" data-name="Tracé 221" d="M518.382,133.331q.365,10.205.729,20.41a48.626,48.626,0,0,0-9.476,31.345,47.264,47.264,0,0,0,59.045,43.008q.365-19.681.729-39.363h-41.55v-60.5c3.046-1.6,26.567-13.463,52.484-2.187,22.267,9.688,30.53,29.591,32.074,33.531a61.111,61.111,0,0,1-20.41,70.708q.364-10.205.729-20.411c11.746-14.989,13.129-35.468,3.645-51.027-10.749-17.633-33.4-25.567-53.942-18.223v34.261l42.279.729q-.365,29.522-.729,59.045a59.547,59.547,0,0,1-86.745-37.176,61.08,61.08,0,0,1,1.458-34.261A66.8,66.8,0,0,1,518.382,133.331Z" transform="translate(-495.432 -121.229)" fill="#fff"/>
            <path id="Tracé_222" data-name="Tracé 222" d="M693.557,192.336a23.334,23.334,0,0,1,7.828,2.878,23.666,23.666,0,0,1,7.116,6.476V220.4l-14.944-.26Z" transform="translate(-619.216 -165.655)" fill="#fff"/>
            <path id="Tracé_223" data-name="Tracé 223" d="M581.851,320.08a18.4,18.4,0,0,0,6.022,6.56,19.139,19.139,0,0,0,7.528,2.916V301.127h-13.55Z" transform="translate(-549.425 -233.625)" fill="#fff"/>
          </g>
          <text id="CAISSE_HOCOLOU_" data-name="CAISSE  HOCOLOU " transform="translate(2.251 184.623)" fill="#fff" font-size="18" font-family="MyriadPro-BoldSemiCn, Myriad Pro" font-weight="700"><tspan x="0" y="14" xml:space="preserve">CAISSE  HOCOLOU </tspan></text>
        </g>
      </g>
    </g>
  </g>
</svg>
