<svg xmlns="http://www.w3.org/2000/svg" width="640" height="480" viewBox="0 0 640 480">
  <path id="sensor-triangle-exclamation-light" d="M32,96V416a31.985,31.985,0,0,0,32,32H226.6a76.638,76.638,0,0,0-2.6,19.7c0,4.2.3,7.4.1,12.3H64A64.027,64.027,0,0,1,0,416V96A64,64,0,0,1,64,32H384a64.027,64.027,0,0,1,64,64v32a72.644,72.644,0,0,0-32,7.4V96a31.985,31.985,0,0,0-32-32H64A32,32,0,0,0,32,96Zm96,176a16,16,0,0,1-32,0V144a16,16,0,0,1,32,0Zm64,0a16,16,0,0,1-32,0V144a16,16,0,0,1,32,0Zm271.1,96c0,8.8-6.3,16-16,16-7.9,0-16-7.2-16-16V304c0-8.8,8.1-16,16-16,9.7,0,16,7.2,16,16ZM424,424a24,24,0,1,1,24,24A23.942,23.942,0,0,1,424,424Zm210.2,21.8A44.289,44.289,0,0,1,595.7,512H300.3A44.257,44.257,0,0,1,256,467.7c0-7.7,1.1-15.2,5.8-21.9L412.2,180.9c7.3-13.8,21-20.9,35.8-20.9s28.5,7.1,35.8,20.9ZM439.1,196.7,289.6,461.6a13.212,13.212,0,0,0-1.6,6.1A12.291,12.291,0,0,0,300.3,480H595.7A12.291,12.291,0,0,0,608,467.7a13.212,13.212,0,0,0-1.6-6.1L456,196.7c-1.6-2.9-4.7-5.6-8-5.6s-6.4,2.7-8.9,5.6Z" transform="translate(0 -32)" fill="#fff"/>
</svg>
