<svg xmlns="http://www.w3.org/2000/svg" width="640" height="512" viewBox="0 0 640 512">
  <path id="users-light_1_" data-name="users-light (1)" d="M319.9,320C377.31,320,423,273.44,423,216S376.46,112,319.9,112c-57.41,0-103.1,46.56-103.1,104C215.9,273.4,262.5,320,319.9,320Zm0-176a72,72,0,1,1-72,72A72.061,72.061,0,0,1,319.9,144Zm50,208H270.1C191.6,352,128,411.7,128,485.3c0,14.8,12.7,26.7,28.4,26.7H483.6c15.7,0,28.4-11.9,28.4-26.7C512,411.7,448.4,352,369.9,352ZM160.2,480c3.021-53.41,51.19-96,109.1-96H369.9c58.78,0,106.9,42.59,109.1,96ZM512,160a80,80,0,1,0-80-80A80,80,0,0,0,512,160Zm0-128a48,48,0,1,1-48,48A48.051,48.051,0,0,1,512,32ZM128,160A80,80,0,1,0,48,80,80,80,0,0,0,128,160Zm0-128A48,48,0,1,1,80,80,48.051,48.051,0,0,1,128,32ZM561.1,192H496a75.124,75.124,0,0,0-32.47,7.438,16,16,0,1,0,13.716,28.9A43.918,43.918,0,0,1,496,224h65.08C586.1,224,608,246.7,608,274.7V288a16,16,0,0,0,32,0V274.7C640,229.1,604.6,192,561.1,192ZM162.8,228.3a16,16,0,0,0,13.716-28.9A75.836,75.836,0,0,0,144,192H78.92C35.41,192,0,229.1,0,274.7V288a16,16,0,0,0,32,0V274.7c0-28,21.05-50.7,46.92-50.7H144A44.851,44.851,0,0,1,162.8,228.3Z" fill="#fff"/>
</svg>
