<svg xmlns="http://www.w3.org/2000/svg" width="635.202" height="512" viewBox="0 0 635.202 512">
  <path id="users-gear-light" d="M319.9,320C377.31,320,423,273.44,423,216S376.46,112,319.9,112c-57.41,0-103.1,46.56-103.1,104C215.9,273.4,262.5,320,319.9,320Zm0-176a72,72,0,1,1-72,72A72.061,72.061,0,0,1,319.9,144ZM496,192a74.983,74.983,0,0,0-31.47,6.971c-7.74,3.551-12.13,12.51-9.143,20.48a16.027,16.027,0,0,0,21.86,8.889A43.937,43.937,0,0,1,496,224h65.08c16.65,0,31.24,9.439,39.55,23.6A16.322,16.322,0,0,0,614.7,256c12.42,0,19.93-13.48,13.7-24.22C614.5,207.1,589.6,192,561.1,192Zm16-32a80,80,0,1,0-80-80A80,80,0,0,0,512,160Zm0-128a48,48,0,1,1-48,48A48.051,48.051,0,0,1,512,32ZM624.5,397.2l-10.02-5.828a99.806,99.806,0,0,0,0-14.66l9.531-5.562a21.551,21.551,0,0,0,10.2-25.22,129.179,129.179,0,0,0-28.08-48.55,21.491,21.491,0,0,0-26.64-4.25l-9.984,5.766a102.9,102.9,0,0,0-12.64-7.3V279.1a21.2,21.2,0,0,0-16.77-20.83,127.714,127.714,0,0,0-55.88-.094,21.291,21.291,0,0,0-17.14,20.92v11.61a103.238,103.238,0,0,0-12.66,7.3l-9.75-5.609a21.576,21.576,0,0,0-26.75,3.859A138.7,138.7,0,0,0,389.7,346.1a21.242,21.242,0,0,0,9.688,24.73l10.06,5.859a108.257,108.257,0,0,0,0,14.59L399.9,396.9a21.229,21.229,0,0,0-10.14,25.12,129.18,129.18,0,0,0,28.31,48.97,21.392,21.392,0,0,0,26.31,3.938l10.09-5.8a101.723,101.723,0,0,0,12.64,7.3v11.61c0,10.2,7.219,19,16.7,20.83C493.2,510.1,502.7,512,512.2,512a122.921,122.921,0,0,0,27.49-3.047,21.319,21.319,0,0,0,17.2-20.92v-11.59a102.627,102.627,0,0,0,12.64-7.3l9.688,5.594a21.3,21.3,0,0,0,26.75-3.859A129.9,129.9,0,0,0,634.3,421.9C637.2,412.2,632.9,401.7,624.5,397.2Zm-42.9-26a70.3,70.3,0,0,1,0,25.69L579.506,408l21.38,12.44a98.8,98.8,0,0,1-12.98,22.38l-21.28-12.3-8.609,7.312a70.609,70.609,0,0,1-22.39,12.92l-10.69,3.766v24.67a100.247,100.247,0,0,1-25.78-.031v-24.62l-10.67-3.781a70.524,70.524,0,0,1-22.39-12.92l-8.578-7.3-21.38,12.3a96.419,96.419,0,0,1-12.97-22.41L444.3,408l-1.969-11a74.887,74.887,0,0,1,0-26l1.969-11-21.22-12.38a95.632,95.632,0,0,1,12.94-22.42l21.41,12.31,8.578-7.3a70.436,70.436,0,0,1,22.39-12.92l10.67-3.781V288.9a94.971,94.971,0,0,1,25.78.047v24.62l10.69,3.766a70.741,70.741,0,0,1,22.39,12.92l8.609,7.312,21.3-12.3a97.886,97.886,0,0,1,12.97,22.36l-21.38,12.45ZM128,160A80,80,0,1,0,48,80,80,80,0,0,0,128,160Zm0-128A48,48,0,1,1,80,80,48.051,48.051,0,0,1,128,32ZM384,480H160.2c3.021-53.41,51.19-96,109.1-96H336a16,16,0,0,0,0-32H270.1C191.6,352,128,411.7,128,485.3c0,14.8,12.7,26.7,28.4,26.7H384a16,16,0,0,0,0-32ZM512,336a48,48,0,1,0,48,48A48.051,48.051,0,0,0,512,336Zm0,64a16,16,0,1,1,16-16A16.011,16.011,0,0,1,512,400ZM162.8,228.3a16,16,0,0,0,13.716-28.9A75.836,75.836,0,0,0,144,192H78.92C35.41,192,0,229.1,0,274.7V288a16,16,0,0,0,32,0V274.7c0-28,21.05-50.7,46.92-50.7H144A44.851,44.851,0,0,1,162.8,228.3Z" fill="#fff"/>
</svg>
